g polySurface320
v 5.940865E-11 0.1231398 -1.144409E-08
v 5.940865E-11 0.1231398 -0.359492
v 0.179746 0.1231398 -0.3113295
v 5.940865E-11 -0.1231398 -1.144409E-08
v 0.179746 -0.1231398 -0.3113295
v 5.940865E-11 -0.1231398 -0.359492
v 5.940865E-11 0.1231398 -1.144409E-08
v -0.179746 0.1231398 -0.3113295
v 5.940865E-11 0.1231398 -0.359492
v 5.940865E-11 -0.1231398 -1.144409E-08
v 5.940865E-11 -0.1231398 -0.359492
v -0.179746 -0.1231398 -0.3113295
v 5.940865E-11 0.1231398 -1.144409E-08
v -0.3113297 0.1231398 -0.179746
v -0.179746 0.1231398 -0.3113295
v 5.940865E-11 -0.1231398 -1.144409E-08
v -0.179746 -0.1231398 -0.3113295
v -0.3113297 -0.1231398 -0.179746
v 5.940865E-11 0.1231398 -1.144409E-08
v -0.3594919 0.1231398 -1.144409E-08
v -0.3113297 0.1231398 -0.179746
v 5.940865E-11 -0.1231398 -1.144409E-08
v -0.3113297 -0.1231398 -0.179746
v -0.3594919 -0.1231398 -1.144409E-08
v 5.940865E-11 0.1231398 -1.144409E-08
v -0.3113297 0.1231398 0.179746
v -0.3594919 0.1231398 -1.144409E-08
v 5.940865E-11 -0.1231398 -1.144409E-08
v -0.3594919 -0.1231398 -1.144409E-08
v -0.3113297 -0.1231398 0.179746
v 5.940865E-11 0.1231398 -1.144409E-08
v -0.179746 0.1231398 0.3113295
v -0.3113297 0.1231398 0.179746
v 5.940865E-11 -0.1231398 -1.144409E-08
v -0.3113297 -0.1231398 0.179746
v -0.179746 -0.1231398 0.3113295
v 5.940865E-11 0.1231398 -1.144409E-08
v 5.940865E-11 0.1231398 0.359492
v -0.179746 0.1231398 0.3113295
v 5.940865E-11 -0.1231398 -1.144409E-08
v -0.179746 -0.1231398 0.3113295
v 5.940865E-11 -0.1231398 0.359492
v 5.940865E-11 0.1231398 -1.144409E-08
v 0.179746 0.1231398 0.3113295
v 5.940865E-11 0.1231398 0.359492
v 5.940865E-11 -0.1231398 -1.144409E-08
v 5.940865E-11 -0.1231398 0.359492
v 0.179746 -0.1231398 0.3113295
v 5.940865E-11 0.1231398 -1.144409E-08
v 0.3113297 0.1231398 0.179746
v 0.179746 0.1231398 0.3113295
v 5.940865E-11 -0.1231398 -1.144409E-08
v 0.179746 -0.1231398 0.3113295
v 0.3113297 -0.1231398 0.179746
v 5.940865E-11 0.1231398 -1.144409E-08
v 0.3594922 0.1231398 -1.144409E-08
v 0.3113297 0.1231398 0.179746
v 5.940865E-11 -0.1231398 -1.144409E-08
v 0.3113297 -0.1231398 0.179746
v 0.3594922 -0.1231398 -1.144409E-08
v 5.940865E-11 0.1231398 -1.144409E-08
v 0.3113297 0.1231398 -0.179746
v 0.3594922 0.1231398 -1.144409E-08
v 5.940865E-11 -0.1231398 -1.144409E-08
v 0.3594922 -0.1231398 -1.144409E-08
v 0.3113297 -0.1231398 -0.179746
v 0.179746 0.1231398 -0.3113295
v 0.3113297 0.1231398 -0.179746
v 5.940865E-11 0.1231398 -1.144409E-08
v 5.940865E-11 -0.1231398 -1.144409E-08
v 0.3113297 -0.1231398 -0.179746
v 0.179746 -0.1231398 -0.3113295
v 0.179746 0.1231398 -0.3113295
v 5.940865E-11 0.1231398 -0.359492
v 5.940865E-11 0.1195092 -0.3631232
v 0.2096494 0.09640718 -0.3631232
v 5.940865E-11 -0.1231398 -0.359492
v 0.179746 -0.1231398 -0.3113295
v 0.2096494 -0.09640772 -0.3631232
v 5.940865E-11 -0.1195086 -0.3631232
v 5.940865E-11 0.1231398 -0.359492
v -0.179746 0.1231398 -0.3113295
v -0.2096494 0.09640718 -0.3631232
v 5.940865E-11 0.1195092 -0.3631232
v -0.179746 -0.1231398 -0.3113295
v 5.940865E-11 -0.1231398 -0.359492
v 5.940865E-11 -0.1195086 -0.3631232
v -0.2096494 -0.09640772 -0.3631232
v -0.179746 0.1231398 -0.3113295
v -0.3113297 0.1231398 -0.179746
v -0.3144743 0.1195092 -0.1815616
v -0.2096494 0.09640718 -0.3631232
v -0.3113297 -0.1231398 -0.179746
v -0.179746 -0.1231398 -0.3113295
v -0.2096494 -0.09640772 -0.3631232
v -0.3144743 -0.1195086 -0.1815616
v -0.3113297 0.1231398 -0.179746
v -0.3594919 0.1231398 -1.144409E-08
v -0.4192992 0.09640718 -1.144409E-08
v -0.3144743 0.1195092 -0.1815616
v -0.3594919 -0.1231398 -1.144409E-08
v -0.3113297 -0.1231398 -0.179746
v -0.3144743 -0.1195086 -0.1815616
v -0.4192992 -0.09640772 -1.144409E-08
v -0.3594919 0.1231398 -1.144409E-08
v -0.3113297 0.1231398 0.179746
v -0.3144743 0.1195092 0.1815616
v -0.4192992 0.09640718 -1.144409E-08
v -0.3113297 -0.1231398 0.179746
v -0.3594919 -0.1231398 -1.144409E-08
v -0.4192992 -0.09640772 -1.144409E-08
v -0.3144743 -0.1195086 0.1815616
v -0.3113297 0.1231398 0.179746
v -0.179746 0.1231398 0.3113295
v -0.2096494 0.09640718 0.3631232
v -0.3144743 0.1195092 0.1815616
v -0.179746 -0.1231398 0.3113295
v -0.3113297 -0.1231398 0.179746
v -0.3144743 -0.1195086 0.1815616
v -0.2096494 -0.09640772 0.3631232
v -0.179746 0.1231398 0.3113295
v 5.940865E-11 0.1231398 0.359492
v 5.940865E-11 0.1195092 0.3631232
v -0.2096494 0.09640718 0.3631232
v 5.940865E-11 -0.1231398 0.359492
v -0.179746 -0.1231398 0.3113295
v -0.2096494 -0.09640772 0.3631232
v 5.940865E-11 -0.1195086 0.3631232
v 5.940865E-11 0.1231398 0.359492
v 0.179746 0.1231398 0.3113295
v 0.2096494 0.09640718 0.3631232
v 5.940865E-11 0.1195092 0.3631232
v 0.179746 -0.1231398 0.3113295
v 5.940865E-11 -0.1231398 0.359492
v 5.940865E-11 -0.1195086 0.3631232
v 0.2096494 -0.09640772 0.3631232
v 0.179746 0.1231398 0.3113295
v 0.3113297 0.1231398 0.179746
v 0.3144743 0.1195092 0.1815616
v 0.2096494 0.09640718 0.3631232
v 0.3113297 -0.1231398 0.179746
v 0.179746 -0.1231398 0.3113295
v 0.2096494 -0.09640772 0.3631232
v 0.3144743 -0.1195086 0.1815616
v 0.3113297 0.1231398 0.179746
v 0.3594922 0.1231398 -1.144409E-08
v 0.4192992 0.09640718 -1.144409E-08
v 0.3144743 0.1195092 0.1815616
v 0.3594922 -0.1231398 -1.144409E-08
v 0.3113297 -0.1231398 0.179746
v 0.3144743 -0.1195086 0.1815616
v 0.4192992 -0.09640772 -1.144409E-08
v 0.3594922 0.1231398 -1.144409E-08
v 0.3113297 0.1231398 -0.179746
v 0.3144743 0.1195092 -0.1815616
v 0.4192992 0.09640718 -1.144409E-08
v 0.3113297 -0.1231398 -0.179746
v 0.3594922 -0.1231398 -1.144409E-08
v 0.4192992 -0.09640772 -1.144409E-08
v 0.3144743 -0.1195086 -0.1815616
v 0.3113297 0.1231398 -0.179746
v 0.179746 0.1231398 -0.3113295
v 0.2096494 0.09640718 -0.3631232
v 0.3144743 0.1195092 -0.1815616
v 0.179746 -0.1231398 -0.3113295
v 0.3113297 -0.1231398 -0.179746
v 0.3144743 -0.1195086 -0.1815616
v 0.2096494 -0.09640772 -0.3631232
v 0.2096494 0.09640718 -0.3631232
v 5.940865E-11 -0.09640772 -0.3631232
v 0.2096494 -0.09640772 -0.3631232
v 5.940865E-11 -0.1195086 -0.3631232
v -0.2096494 -0.09640772 -0.3631232
v 5.940865E-11 0.09640718 -0.3631232
v 5.940865E-11 0.1195092 -0.3631232
v -0.2096494 0.09640718 -0.3631232
v -0.2096494 0.09640718 -0.3631232
v -0.3144743 0.1195092 -0.1815616
v -0.3144743 0.09640718 -0.1815616
v -0.4192992 0.09640718 -1.144409E-08
v -0.4192992 -0.09640772 -1.144409E-08
v -0.3144743 -0.09640772 -0.1815616
v -0.2096494 -0.09640772 -0.3631232
v -0.3144743 -0.1195086 -0.1815616
v -0.4192992 0.09640718 -1.144409E-08
v -0.3144743 0.1195092 0.1815616
v -0.3144743 0.09640718 0.1815616
v -0.2096494 0.09640718 0.3631232
v -0.2096494 -0.09640772 0.3631232
v -0.3144743 -0.09640772 0.1815616
v -0.4192992 -0.09640772 -1.144409E-08
v -0.3144743 -0.1195086 0.1815616
v -0.2096494 0.09640718 0.3631232
v 5.940865E-11 0.1195092 0.3631232
v 5.940865E-11 0.09640718 0.3631232
v 0.2096494 0.09640718 0.3631232
v 0.2096494 -0.09640772 0.3631232
v 5.940865E-11 -0.09640772 0.3631232
v -0.2096494 -0.09640772 0.3631232
v 5.940865E-11 -0.1195086 0.3631232
v 0.2096494 0.09640718 0.3631232
v 0.3144743 0.1195092 0.1815616
v 0.3144743 0.09640718 0.1815616
v 0.4192992 0.09640718 -1.144409E-08
v 0.4192992 -0.09640772 -1.144409E-08
v 0.3144743 -0.09640772 0.1815616
v 0.2096494 -0.09640772 0.3631232
v 0.3144743 -0.1195086 0.1815616
v 0.4192992 0.09640718 -1.144409E-08
v 0.3144743 0.1195092 -0.1815616
v 0.3144743 0.09640718 -0.1815616
v 0.2096494 0.09640718 -0.3631232
v 0.2096494 -0.09640772 -0.3631232
v 0.3144743 -0.09640772 -0.1815616
v 0.4192992 -0.09640772 -1.144409E-08
v 0.3144743 -0.1195086 -0.1815616
vt 0.8266602 0.7094727
vt 0.9111328 0.6943359
vt 0.8442383 0.6210938
vt 0.1447754 0.8178711
vt 0.05944824 0.7890625
vt 0.0892334 0.8837891
vt 0.8554688 0.7597656
vt 0.940918 0.7890625
vt 0.9111328 0.6943359
vt 0.1737061 0.8681641
vt 0.0892334 0.8837891
vt 0.15625 0.956543
vt 0.8554688 0.8178711
vt 0.9111328 0.8833008
vt 0.940918 0.7890625
vt 0.223877 0.8969727
vt 0.15625 0.956543
vt 0.2531738 0.9780273
vt 0.8266602 0.8681641
vt 0.8442383 0.956543
vt 0.9111328 0.8833008
vt 0.2819824 0.8969727
vt 0.2531738 0.9780273
vt 0.3498535 0.956543
vt 0.7763672 0.8969727
vt 0.7475586 0.9780273
vt 0.8442383 0.956543
vt 0.3322754 0.8681641
vt 0.3498535 0.956543
vt 0.4169922 0.8833008
vt 0.7182617 0.8969727
vt 0.6503906 0.956543
vt 0.7475586 0.9780273
vt 0.361084 0.8178711
vt 0.4169922 0.8833008
vt 0.4465332 0.7890625
vt 0.6679688 0.8681641
vt 0.5834961 0.8837891
vt 0.6503906 0.956543
vt 0.3613281 0.7597656
vt 0.4465332 0.7890625
vt 0.416748 0.6943359
vt 0.6391602 0.8178711
vt 0.5537109 0.7890625
vt 0.5834961 0.8837891
vt 0.3322754 0.7094727
vt 0.416748 0.6943359
vt 0.3498535 0.6210938
vt 0.6391602 0.7597656
vt 0.5834961 0.6943359
vt 0.5537109 0.7890625
vt 0.2822266 0.6806641
vt 0.3498535 0.6210938
vt 0.2529297 0.5996094
vt 0.6679688 0.7094727
vt 0.6503906 0.6210938
vt 0.5834961 0.6943359
vt 0.223999 0.6806641
vt 0.2529297 0.5996094
vt 0.15625 0.6210938
vt 0.7182617 0.6806641
vt 0.7470703 0.5996094
vt 0.6503906 0.6210938
vt 0.1738281 0.7094727
vt 0.15625 0.6210938
vt 0.08911133 0.6943359
vt 0.8442383 0.6210938
vt 0.7470703 0.5996094
vt 0.7763672 0.6806641
vt 0.1448975 0.7597656
vt 0.08911133 0.6943359
vt 0.05944824 0.7890625
vt 0.8442383 0.6210938
vt 0.9111328 0.6943359
vt 0.9228516 0.6875
vt 0.8676758 0.5805664
vt 0.0892334 0.8837891
vt 0.05944824 0.7890625
vt 0.01270294 0.7890625
vt 0.07745361 0.890625
vt 0.9111328 0.6943359
vt 0.940918 0.7890625
vt 0.987793 0.7890625
vt 0.9228516 0.6875
vt 0.15625 0.956543
vt 0.0892334 0.8837891
vt 0.07745361 0.890625
vt 0.1329346 0.9970703
vt 0.940918 0.7890625
vt 0.9111328 0.8833008
vt 0.9228516 0.8901367
vt 0.987793 0.7890625
vt 0.2531738 0.9780273
vt 0.15625 0.956543
vt 0.1329346 0.9970703
vt 0.2531738 0.9916992
vt 0.9111328 0.8833008
vt 0.8442383 0.956543
vt 0.8676758 0.9970703
vt 0.9228516 0.8901367
vt 0.3498535 0.956543
vt 0.2531738 0.9780273
vt 0.2531738 0.9916992
vt 0.373291 0.9970703
vt 0.8442383 0.956543
vt 0.7475586 0.9780273
vt 0.7475586 0.9916992
vt 0.8676758 0.9970703
vt 0.4169922 0.8833008
vt 0.3498535 0.956543
vt 0.373291 0.9970703
vt 0.4287109 0.8901367
vt 0.7475586 0.9780273
vt 0.6503906 0.956543
vt 0.6274414 0.9970703
vt 0.7475586 0.9916992
vt 0.4465332 0.7890625
vt 0.4169922 0.8833008
vt 0.4287109 0.8901367
vt 0.4934082 0.7890625
vt 0.6503906 0.956543
vt 0.5834961 0.8837891
vt 0.5717773 0.890625
vt 0.6274414 0.9970703
vt 0.416748 0.6943359
vt 0.4465332 0.7890625
vt 0.4934082 0.7890625
vt 0.4287109 0.6875
vt 0.5834961 0.8837891
vt 0.5537109 0.7890625
vt 0.5068359 0.7890625
vt 0.5717773 0.890625
vt 0.3498535 0.6210938
vt 0.416748 0.6943359
vt 0.4287109 0.6875
vt 0.3730469 0.5805664
vt 0.5537109 0.7890625
vt 0.5834961 0.6943359
vt 0.5717773 0.6875
vt 0.5068359 0.7890625
vt 0.2529297 0.5996094
vt 0.3498535 0.6210938
vt 0.3730469 0.5805664
vt 0.2529297 0.5859375
vt 0.5834961 0.6943359
vt 0.6503906 0.6210938
vt 0.6269531 0.5805664
vt 0.5717773 0.6875
vt 0.15625 0.6210938
vt 0.2529297 0.5996094
vt 0.2529297 0.5859375
vt 0.1328125 0.5805664
vt 0.6503906 0.6210938
vt 0.7470703 0.5996094
vt 0.7470703 0.5859375
vt 0.6269531 0.5805664
vt 0.08911133 0.6943359
vt 0.15625 0.6210938
vt 0.1328125 0.5805664
vt 0.07733154 0.6875
vt 0.7470703 0.5996094
vt 0.8442383 0.6210938
vt 0.8676758 0.5805664
vt 0.7470703 0.5859375
vt 0.05944824 0.7890625
vt 0.08911133 0.6943359
vt 0.07733154 0.6875
vt 0.01270294 0.7890625
vt 0.1121216 0.166626
vt 0.2219238 0.0295105
vt 0.1121216 0.0295105
vt 0.2219238 7.802248E-05
vt 0.3317871 0.0295105
vt 0.2219238 0.166626
vt 0.2219238 0.1960449
vt 0.3317871 0.166626
vt 0.3317871 0.166626
vt 0.4416504 0.1960449
vt 0.4416504 0.166626
vt 0.5512695 0.166626
vt 0.5512695 0.0295105
vt 0.4416504 0.0295105
vt 0.3317871 0.0295105
vt 0.4416504 7.70092E-05
vt 0.5512695 0.166626
vt 0.6611328 0.1960449
vt 0.6611328 0.166626
vt 0.7709961 0.166626
vt 0.7709961 0.0295105
vt 0.6611328 0.0295105
vt 0.5512695 0.0295105
vt 0.6611328 7.70092E-05
vt 0.6621094 0.2010498
vt 0.5522461 0.1716309
vt 0.5522461 0.2010498
vt 0.442627 0.2010498
vt 0.442627 0.3381348
vt 0.5522461 0.3381348
vt 0.6621094 0.3381348
vt 0.5522461 0.3674316
vt 0.442627 0.2010498
vt 0.3327637 0.1716309
vt 0.3327637 0.2010498
vt 0.2229004 0.2010498
vt 0.2229004 0.3381348
vt 0.3327637 0.3381348
vt 0.442627 0.3381348
vt 0.3327637 0.3674316
vt 0.2229004 0.2010498
vt 0.1130981 0.1716309
vt 0.1130981 0.2010498
vt 0.003250122 0.2010498
vt 0.003250122 0.3381348
vt 0.1130981 0.3381348
vt 0.2229004 0.3381348
vt 0.1130981 0.3674316
vn 0 1 0
vn 0 1 0
vn 0 1 0
vn 0 -1 0
vn 0 -1 0
vn 0 -1 0
vn 0 1 0
vn 0 1 0
vn 0 1 0
vn 0 -1 0
vn 0 -1 0
vn 0 -1 0
vn 0 1 0
vn 0 1 0
vn 0 1 0
vn 0 -1 0
vn 0 -1 0
vn 0 -1 0
vn 0 1 0
vn 0 1 0
vn 0 1 0
vn 0 -1 0
vn 0 -1 0
vn 0 -1 0
vn 0 1 0
vn 0 1 0
vn 0 1 0
vn 0 -1 0
vn 0 -1 0
vn 0 -1 0
vn 0 1 0
vn 0 1 0
vn 0 1 0
vn 0 -1 0
vn 0 -1 0
vn 0 -1 0
vn 0 1 0
vn 0 1 0
vn 0 1 0
vn 0 -1 0
vn 0 -1 0
vn 0 -1 0
vn 0 1 0
vn 0 1 0
vn 0 1 0
vn 0 -1 0
vn 0 -1 0
vn 0 -1 0
vn 0 1 0
vn 0 1 0
vn 0 1 0
vn 0 -1 0
vn 0 -1 0
vn 0 -1 0
vn 0 1 0
vn 0 1 0
vn 0 1 0
vn 0 -1 0
vn 0 -1 0
vn 0 -1 0
vn 0 1 0
vn 0 1 0
vn 0 1 0
vn 0 -1 0
vn 0 -1 0
vn 0 -1 0
vn 0 1 0
vn 0 1 0
vn 0 1 0
vn 0 -1 0
vn 0 -1 0
vn 0 -1 0
vn 0.1066284 0.8950195 -0.4328613
vn 0.1066284 0.8950195 -0.4328613
vn 0.1066284 0.8950195 -0.4328613
vn 0.1066284 0.8950195 -0.4328613
vn 0.1066284 -0.8950195 -0.4328613
vn 0.1066284 -0.8950195 -0.4328613
vn 0.1066284 -0.8950195 -0.4328613
vn 0.1066284 -0.8950195 -0.4328613
vn -0.1066284 0.8950195 -0.4328613
vn -0.1066284 0.8950195 -0.4328613
vn -0.1066284 0.8950195 -0.4328613
vn -0.1066284 0.8950195 -0.4328613
vn -0.1066284 -0.8950195 -0.4328613
vn -0.1066284 -0.8950195 -0.4328613
vn -0.1066284 -0.8950195 -0.4328613
vn -0.1066284 -0.8950195 -0.4328613
vn -0.3215332 0.8950195 -0.3088379
vn -0.3215332 0.8950195 -0.3088379
vn -0.3215332 0.8950195 -0.3088379
vn -0.3215332 0.8950195 -0.3088379
vn -0.3215332 -0.8950195 -0.3088379
vn -0.3215332 -0.8950195 -0.3088379
vn -0.3215332 -0.8950195 -0.3088379
vn -0.3215332 -0.8950195 -0.3088379
vn -0.4282227 0.8950195 -0.1240845
vn -0.4282227 0.8950195 -0.1240845
vn -0.4282227 0.8950195 -0.1240845
vn -0.4282227 0.8950195 -0.1240845
vn -0.4282227 -0.8950195 -0.1240845
vn -0.4282227 -0.8950195 -0.1240845
vn -0.4282227 -0.8950195 -0.1240845
vn -0.4282227 -0.8950195 -0.1240845
vn -0.4282227 0.8950195 0.1240845
vn -0.4282227 0.8950195 0.1240845
vn -0.4282227 0.8950195 0.1240845
vn -0.4282227 0.8950195 0.1240845
vn -0.4282227 -0.8950195 0.1240845
vn -0.4282227 -0.8950195 0.1240845
vn -0.4282227 -0.8950195 0.1240845
vn -0.4282227 -0.8950195 0.1240845
vn -0.3215332 0.8950195 0.3088379
vn -0.3215332 0.8950195 0.3088379
vn -0.3215332 0.8950195 0.3088379
vn -0.3215332 0.8950195 0.3088379
vn -0.3215332 -0.8950195 0.3088379
vn -0.3215332 -0.8950195 0.3088379
vn -0.3215332 -0.8950195 0.3088379
vn -0.3215332 -0.8950195 0.3088379
vn -0.1066284 0.8950195 0.4328613
vn -0.1066284 0.8950195 0.4328613
vn -0.1066284 0.8950195 0.4328613
vn -0.1066284 0.8950195 0.4328613
vn -0.1066284 -0.8950195 0.4328613
vn -0.1066284 -0.8950195 0.4328613
vn -0.1066284 -0.8950195 0.4328613
vn -0.1066284 -0.8950195 0.4328613
vn 0.1066284 0.8950195 0.4328613
vn 0.1066284 0.8950195 0.4328613
vn 0.1066284 0.8950195 0.4328613
vn 0.1066284 0.8950195 0.4328613
vn 0.1066284 -0.8950195 0.4328613
vn 0.1066284 -0.8950195 0.4328613
vn 0.1066284 -0.8950195 0.4328613
vn 0.1066284 -0.8950195 0.4328613
vn 0.3215332 0.8950195 0.3088379
vn 0.3215332 0.8950195 0.3088379
vn 0.3215332 0.8950195 0.3088379
vn 0.3215332 0.8950195 0.3088379
vn 0.3215332 -0.8950195 0.3088379
vn 0.3215332 -0.8950195 0.3088379
vn 0.3215332 -0.8950195 0.3088379
vn 0.3215332 -0.8950195 0.3088379
vn 0.4282227 0.8950195 0.1240845
vn 0.4282227 0.8950195 0.1240845
vn 0.4282227 0.8950195 0.1240845
vn 0.4282227 0.8950195 0.1240845
vn 0.4282227 -0.8950195 0.1240845
vn 0.4282227 -0.8950195 0.1240845
vn 0.4282227 -0.8950195 0.1240845
vn 0.4282227 -0.8950195 0.1240845
vn 0.4282227 0.8950195 -0.1240845
vn 0.4282227 0.8950195 -0.1240845
vn 0.4282227 0.8950195 -0.1240845
vn 0.4282227 0.8950195 -0.1240845
vn 0.4282227 -0.8950195 -0.1240845
vn 0.4282227 -0.8950195 -0.1240845
vn 0.4282227 -0.8950195 -0.1240845
vn 0.4282227 -0.8950195 -0.1240845
vn 0.3215332 0.8950195 -0.3088379
vn 0.3215332 0.8950195 -0.3088379
vn 0.3215332 0.8950195 -0.3088379
vn 0.3215332 0.8950195 -0.3088379
vn 0.3215332 -0.8950195 -0.3088379
vn 0.3215332 -0.8950195 -0.3088379
vn 0.3215332 -0.8950195 -0.3088379
vn 0.3215332 -0.8950195 -0.3088379
vn 0 0 -1
vn 0 0 -1
vn 0 0 -1
vn 0 0 -1
vn 0 0 -1
vn 0 0 -1
vn 0 0 -1
vn 0 0 -1
vn -0.8662109 0 -0.5
vn -0.8662109 0 -0.5
vn -0.8662109 0 -0.5
vn -0.8662109 0 -0.5
vn -0.8662109 0 -0.5
vn -0.8662109 0 -0.5
vn -0.8662109 0 -0.5
vn -0.8662109 0 -0.5
vn -0.8662109 0 0.5
vn -0.8662109 0 0.5
vn -0.8662109 0 0.5
vn -0.8662109 0 0.5
vn -0.8662109 0 0.5
vn -0.8662109 0 0.5
vn -0.8662109 0 0.5
vn -0.8662109 0 0.5
vn 0 0 1
vn 0 0 1
vn 0 0 1
vn 0 0 1
vn 0 0 1
vn 0 0 1
vn 0 0 1
vn 0 0 1
vn 0.8662109 0 0.5
vn 0.8662109 0 0.5
vn 0.8662109 0 0.5
vn 0.8662109 0 0.5
vn 0.8662109 0 0.5
vn 0.8662109 0 0.5
vn 0.8662109 0 0.5
vn 0.8662109 0 0.5
vn 0.8662109 0 -0.5
vn 0.8662109 0 -0.5
vn 0.8662109 0 -0.5
vn 0.8662109 0 -0.5
vn 0.8662109 0 -0.5
vn 0.8662109 0 -0.5
vn 0.8662109 0 -0.5
vn 0.8662109 0 -0.5
g polySurface320_0
f 3/3/3 2/2/2 1/1/1
f 6/6/6 5/5/5 4/4/4
f 9/9/9 8/8/8 7/7/7
f 12/12/12 11/11/11 10/10/10
f 15/15/15 14/14/14 13/13/13
f 18/18/18 17/17/17 16/16/16
f 21/21/21 20/20/20 19/19/19
f 24/24/24 23/23/23 22/22/22
f 27/27/27 26/26/26 25/25/25
f 30/30/30 29/29/29 28/28/28
f 33/33/33 32/32/32 31/31/31
f 36/36/36 35/35/35 34/34/34
f 39/39/39 38/38/38 37/37/37
f 42/42/42 41/41/41 40/40/40
f 45/45/45 44/44/44 43/43/43
f 48/48/48 47/47/47 46/46/46
f 51/51/51 50/50/50 49/49/49
f 54/54/54 53/53/53 52/52/52
f 57/57/57 56/56/56 55/55/55
f 60/60/60 59/59/59 58/58/58
f 63/63/63 62/62/62 61/61/61
f 66/66/66 65/65/65 64/64/64
f 69/69/69 68/68/68 67/67/67
f 72/72/72 71/71/71 70/70/70
f 75/75/75 74/74/74 73/73/73
f 76/76/76 75/75/75 73/73/73
f 79/79/79 78/78/78 77/77/77
f 80/80/80 79/79/79 77/77/77
f 83/83/83 82/82/82 81/81/81
f 84/84/84 83/83/83 81/81/81
f 87/87/87 86/86/86 85/85/85
f 88/88/88 87/87/87 85/85/85
f 91/91/91 90/90/90 89/89/89
f 92/92/92 91/91/91 89/89/89
f 95/95/95 94/94/94 93/93/93
f 96/96/96 95/95/95 93/93/93
f 99/99/99 98/98/98 97/97/97
f 100/100/100 99/99/99 97/97/97
f 103/103/103 102/102/102 101/101/101
f 104/104/104 103/103/103 101/101/101
f 107/107/107 106/106/106 105/105/105
f 108/108/108 107/107/107 105/105/105
f 111/111/111 110/110/110 109/109/109
f 112/112/112 111/111/111 109/109/109
f 115/115/115 114/114/114 113/113/113
f 116/116/116 115/115/115 113/113/113
f 119/119/119 118/118/118 117/117/117
f 120/120/120 119/119/119 117/117/117
f 123/123/123 122/122/122 121/121/121
f 124/124/124 123/123/123 121/121/121
f 127/127/127 126/126/126 125/125/125
f 128/128/128 127/127/127 125/125/125
f 131/131/131 130/130/130 129/129/129
f 132/132/132 131/131/131 129/129/129
f 135/135/135 134/134/134 133/133/133
f 136/136/136 135/135/135 133/133/133
f 139/139/139 138/138/138 137/137/137
f 140/140/140 139/139/139 137/137/137
f 143/143/143 142/142/142 141/141/141
f 144/144/144 143/143/143 141/141/141
f 147/147/147 146/146/146 145/145/145
f 148/148/148 147/147/147 145/145/145
f 151/151/151 150/150/150 149/149/149
f 152/152/152 151/151/151 149/149/149
f 155/155/155 154/154/154 153/153/153
f 156/156/156 155/155/155 153/153/153
f 159/159/159 158/158/158 157/157/157
f 160/160/160 159/159/159 157/157/157
f 163/163/163 162/162/162 161/161/161
f 164/164/164 163/163/163 161/161/161
f 167/167/167 166/166/166 165/165/165
f 168/168/168 167/167/167 165/165/165
f 171/171/171 170/170/170 169/169/169
f 170/170/170 171/171/171 172/172/172
f 170/170/170 172/172/172 173/173/173
f 170/170/170 174/174/174 169/169/169
f 170/170/170 173/173/173 174/174/174
f 174/174/174 175/175/175 169/169/169
f 173/173/173 176/176/176 174/174/174
f 174/174/174 176/176/176 175/175/175
f 179/179/179 178/178/178 177/177/177
f 179/179/179 180/180/180 178/178/178
f 181/181/181 180/180/180 179/179/179
f 182/182/182 179/179/179 177/177/177
f 182/182/182 181/181/181 179/179/179
f 183/183/183 182/182/182 177/177/177
f 182/182/182 184/184/184 181/181/181
f 182/182/182 183/183/183 184/184/184
f 187/187/187 186/186/186 185/185/185
f 187/187/187 188/188/188 186/186/186
f 189/189/189 188/188/188 187/187/187
f 190/190/190 187/187/187 185/185/185
f 190/190/190 189/189/189 187/187/187
f 191/191/191 190/190/190 185/185/185
f 190/190/190 192/192/192 189/189/189
f 190/190/190 191/191/191 192/192/192
f 195/195/195 194/194/194 193/193/193
f 195/195/195 196/196/196 194/194/194
f 197/197/197 196/196/196 195/195/195
f 198/198/198 195/195/195 193/193/193
f 198/198/198 197/197/197 195/195/195
f 199/199/199 198/198/198 193/193/193
f 198/198/198 200/200/200 197/197/197
f 198/198/198 199/199/199 200/200/200
f 203/203/203 202/202/202 201/201/201
f 203/203/203 204/204/204 202/202/202
f 205/205/205 204/204/204 203/203/203
f 206/206/206 203/203/203 201/201/201
f 206/206/206 205/205/205 203/203/203
f 207/207/207 206/206/206 201/201/201
f 206/206/206 208/208/208 205/205/205
f 206/206/206 207/207/207 208/208/208
f 211/211/211 210/210/210 209/209/209
f 211/211/211 212/212/212 210/210/210
f 213/213/213 212/212/212 211/211/211
f 214/214/214 211/211/211 209/209/209
f 214/214/214 213/213/213 211/211/211
f 215/215/215 214/214/214 209/209/209
f 214/214/214 216/216/216 213/213/213
f 214/214/214 215/215/215 216/216/216
